solid zierleisten
facet normal 0.0 1.0 0.0
  outer loop
    vertex -479.67077917696037 -1326.398865297031 0.9999999999999999
    vertex -448.2707791769603 -1326.398865297031 -0.9999999999999999
    vertex -479.67077917696037 -1326.398865297031 -0.9999999999999999
  endloop
endfacet
facet normal 0.0 1.0 0.0
  outer loop
    vertex -448.2707791769603 -1326.398865297031 -0.9999999999999999
    vertex -479.67077917696037 -1326.398865297031 0.9999999999999999
    vertex -448.2707791769603 -1326.398865297031 0.9999999999999999
  endloop
endfacet
facet normal -1.0 -0.0 -0.0
  outer loop
    vertex -479.67077917696037 -1326.398865297031 0.9999999999999999
    vertex -479.67077917696037 -1328.1988652970313 -0.9999999999999999
    vertex -479.67077917696037 -1328.1988652970313 0.9999999999999999
  endloop
endfacet
facet normal -1.0 -0.0 -0.0
  outer loop
    vertex -479.67077917696037 -1328.1988652970313 -0.9999999999999999
    vertex -479.67077917696037 -1326.398865297031 0.9999999999999999
    vertex -479.67077917696037 -1326.398865297031 -0.9999999999999999
  endloop
endfacet
facet normal -0.0 -1.0 -0.0
  outer loop
    vertex -454.2707791769603 -1304.1988652970308 0.9999999999999999
    vertex -473.67077917696037 -1304.1988652970308 -1.0000000000000002
    vertex -454.2707791769603 -1304.1988652970308 -1.0000000000000002
  endloop
endfacet
facet normal -0.0 -1.0 -0.0
  outer loop
    vertex -473.67077917696037 -1304.1988652970308 -1.0000000000000002
    vertex -454.2707791769603 -1304.1988652970308 0.9999999999999999
    vertex -473.67077917696037 -1304.1988652970308 0.9999999999999999
  endloop
endfacet
facet normal 1.0 0.0 0.0
  outer loop
    vertex -454.2707791769603 -1302.3988652970306 -1.0000000000000002
    vertex -454.2707791769603 -1304.1988652970308 0.9999999999999999
    vertex -454.2707791769603 -1304.1988652970308 -1.0000000000000002
  endloop
endfacet
facet normal 1.0 0.0 0.0
  outer loop
    vertex -454.2707791769603 -1304.1988652970308 0.9999999999999999
    vertex -454.2707791769603 -1302.3988652970306 -1.0000000000000002
    vertex -454.2707791769603 -1302.3988652970306 0.9999999999999999
  endloop
endfacet
facet normal 0.0 0.0 1.0
  outer loop
    vertex -440.1707791769604 -1336.3288814576679 0.9999999999999989
    vertex -487.7707791769604 -1334.5288814576677 0.9999999999999989
    vertex -487.7707791769604 -1336.3288814576679 0.9999999999999989
  endloop
endfacet
facet normal 0.0 0.0 1.0
  outer loop
    vertex -487.7707791769604 -1334.5288814576677 0.9999999999999989
    vertex -440.1707791769604 -1336.3288814576679 0.9999999999999989
    vertex -440.1707791769604 -1334.5288814576677 0.9999999999999989
  endloop
endfacet
facet normal -1.0 -0.0 -0.0
  outer loop
    vertex -475.67077917696037 -1310.3988652970309 0.9999999999999999
    vertex -475.67077917696037 -1312.1988652970308 -1.0000000000000009
    vertex -475.67077917696037 -1312.1988652970308 0.9999999999999999
  endloop
endfacet
facet normal -1.0 -0.0 -0.0
  outer loop
    vertex -475.67077917696037 -1312.1988652970308 -1.0000000000000009
    vertex -475.67077917696037 -1310.3988652970309 0.9999999999999999
    vertex -475.67077917696037 -1310.3988652970309 -1.0000000000000009
  endloop
endfacet
facet normal 1.0 -0.0 -0.0
  outer loop
    vertex -440.1707791769604 -1334.5288814576677 -0.9999999999999999
    vertex -440.1707791769604 -1336.3288814576679 0.9999999999999989
    vertex -440.1707791769604 -1336.3288814576679 -0.9999999999999999
  endloop
endfacet
facet normal 1.0 -0.0 -0.0
  outer loop
    vertex -440.1707791769604 -1336.3288814576679 0.9999999999999989
    vertex -440.1707791769604 -1334.5288814576677 -0.9999999999999999
    vertex -440.1707791769604 -1334.5288814576677 0.9999999999999989
  endloop
endfacet
facet normal -1.0 -0.0 -0.0
  outer loop
    vertex -477.67077917696037 -1318.198865297031 0.9999999999999999
    vertex -477.67077917696037 -1320.198865297031 -1.0000000000000002
    vertex -477.67077917696037 -1320.198865297031 0.9999999999999999
  endloop
endfacet
facet normal -1.0 -0.0 -0.0
  outer loop
    vertex -477.67077917696037 -1320.198865297031 -1.0000000000000002
    vertex -477.67077917696037 -1318.198865297031 0.9999999999999999
    vertex -477.67077917696037 -1318.198865297031 -1.0000000000000002
  endloop
endfacet
facet normal 1.0 0.0 0.0
  outer loop
    vertex -452.2707791769603 -1310.3988652970309 -1.0000000000000009
    vertex -452.2707791769603 -1312.1988652970308 0.9999999999999999
    vertex -452.2707791769603 -1312.1988652970308 -1.0000000000000009
  endloop
endfacet
facet normal 1.0 0.0 0.0
  outer loop
    vertex -452.2707791769603 -1312.1988652970308 0.9999999999999999
    vertex -452.2707791769603 -1310.3988652970309 -1.0000000000000009
    vertex -452.2707791769603 -1310.3988652970309 0.9999999999999999
  endloop
endfacet
facet normal -1.0 0.0 0.0
  outer loop
    vertex -487.7707791769604 -1334.5288814576677 0.9999999999999989
    vertex -487.7707791769604 -1336.3288814576679 -0.9999999999999999
    vertex -487.7707791769604 -1336.3288814576679 0.9999999999999989
  endloop
endfacet
facet normal -1.0 0.0 0.0
  outer loop
    vertex -487.7707791769604 -1336.3288814576679 -0.9999999999999999
    vertex -487.7707791769604 -1334.5288814576677 0.9999999999999989
    vertex -487.7707791769604 -1334.5288814576677 -0.9999999999999999
  endloop
endfacet
facet normal -0.0 -0.0 1.0
  outer loop
    vertex -448.2707791769603 -1328.1988652970313 0.9999999999999999
    vertex -479.67077917696037 -1326.398865297031 0.9999999999999999
    vertex -479.67077917696037 -1328.1988652970313 0.9999999999999999
  endloop
endfacet
facet normal -0.0 -0.0 1.0
  outer loop
    vertex -479.67077917696037 -1326.398865297031 0.9999999999999999
    vertex -448.2707791769603 -1328.1988652970313 0.9999999999999999
    vertex -448.2707791769603 -1326.398865297031 0.9999999999999999
  endloop
endfacet
facet normal 0.0 1.0 0.0
  outer loop
    vertex -477.67077917696037 -1318.198865297031 0.9999999999999999
    vertex -450.2707791769603 -1318.198865297031 -1.0000000000000002
    vertex -477.67077917696037 -1318.198865297031 -1.0000000000000002
  endloop
endfacet
facet normal 0.0 1.0 0.0
  outer loop
    vertex -450.2707791769603 -1318.198865297031 -1.0000000000000002
    vertex -477.67077917696037 -1318.198865297031 0.9999999999999999
    vertex -450.2707791769603 -1318.198865297031 0.9999999999999999
  endloop
endfacet
facet normal -0.0 -1.0 -0.0
  outer loop
    vertex -448.2707791769603 -1328.1988652970313 0.9999999999999999
    vertex -479.67077917696037 -1328.1988652970313 -0.9999999999999999
    vertex -448.2707791769603 -1328.1988652970313 -0.9999999999999999
  endloop
endfacet
facet normal -0.0 -1.0 -0.0
  outer loop
    vertex -479.67077917696037 -1328.1988652970313 -0.9999999999999999
    vertex -448.2707791769603 -1328.1988652970313 0.9999999999999999
    vertex -479.67077917696037 -1328.1988652970313 0.9999999999999999
  endloop
endfacet
facet normal 0.0 -1.0 0.0
  outer loop
    vertex -440.1707791769604 -1336.3288814576679 0.9999999999999989
    vertex -487.7707791769604 -1336.3288814576679 -0.9999999999999999
    vertex -440.1707791769604 -1336.3288814576679 -0.9999999999999999
  endloop
endfacet
facet normal 0.0 -1.0 0.0
  outer loop
    vertex -487.7707791769604 -1336.3288814576679 -0.9999999999999999
    vertex -440.1707791769604 -1336.3288814576679 0.9999999999999989
    vertex -487.7707791769604 -1336.3288814576679 0.9999999999999989
  endloop
endfacet
facet normal -0.0 -1.0 -0.0
  outer loop
    vertex -450.2707791769603 -1320.198865297031 0.9999999999999999
    vertex -477.67077917696037 -1320.198865297031 -1.0000000000000002
    vertex -450.2707791769603 -1320.198865297031 -1.0000000000000002
  endloop
endfacet
facet normal -0.0 -1.0 -0.0
  outer loop
    vertex -477.67077917696037 -1320.198865297031 -1.0000000000000002
    vertex -450.2707791769603 -1320.198865297031 0.9999999999999999
    vertex -477.67077917696037 -1320.198865297031 0.9999999999999999
  endloop
endfacet
facet normal 0.0 1.0 0.0
  outer loop
    vertex -487.7707791769604 -1334.5288814576677 0.9999999999999989
    vertex -440.1707791769604 -1334.5288814576677 -0.9999999999999999
    vertex -487.7707791769604 -1334.5288814576677 -0.9999999999999999
  endloop
endfacet
facet normal 0.0 1.0 0.0
  outer loop
    vertex -440.1707791769604 -1334.5288814576677 -0.9999999999999999
    vertex -487.7707791769604 -1334.5288814576677 0.9999999999999989
    vertex -440.1707791769604 -1334.5288814576677 0.9999999999999989
  endloop
endfacet
facet normal -0.0 -0.0 1.0
  outer loop
    vertex -450.2707791769603 -1320.198865297031 0.9999999999999999
    vertex -477.67077917696037 -1318.198865297031 0.9999999999999999
    vertex -477.67077917696037 -1320.198865297031 0.9999999999999999
  endloop
endfacet
facet normal -0.0 -0.0 1.0
  outer loop
    vertex -477.67077917696037 -1318.198865297031 0.9999999999999999
    vertex -450.2707791769603 -1320.198865297031 0.9999999999999999
    vertex -450.2707791769603 -1318.198865297031 0.9999999999999999
  endloop
endfacet
facet normal 1.0 0.0 0.0
  outer loop
    vertex -448.2707791769603 -1326.398865297031 -0.9999999999999999
    vertex -448.2707791769603 -1328.1988652970313 0.9999999999999999
    vertex -448.2707791769603 -1328.1988652970313 -0.9999999999999999
  endloop
endfacet
facet normal 1.0 0.0 0.0
  outer loop
    vertex -448.2707791769603 -1328.1988652970313 0.9999999999999999
    vertex -448.2707791769603 -1326.398865297031 -0.9999999999999999
    vertex -448.2707791769603 -1326.398865297031 0.9999999999999999
  endloop
endfacet
facet normal 1.0 0.0 0.0
  outer loop
    vertex -450.2707791769603 -1318.198865297031 -1.0000000000000002
    vertex -450.2707791769603 -1320.198865297031 0.9999999999999999
    vertex -450.2707791769603 -1320.198865297031 -1.0000000000000002
  endloop
endfacet
facet normal 1.0 0.0 0.0
  outer loop
    vertex -450.2707791769603 -1320.198865297031 0.9999999999999999
    vertex -450.2707791769603 -1318.198865297031 -1.0000000000000002
    vertex -450.2707791769603 -1318.198865297031 0.9999999999999999
  endloop
endfacet
facet normal -1.0 -0.0 -0.0
  outer loop
    vertex -473.67077917696037 -1302.3988652970306 0.9999999999999999
    vertex -473.67077917696037 -1304.1988652970308 -1.0000000000000002
    vertex -473.67077917696037 -1304.1988652970308 0.9999999999999999
  endloop
endfacet
facet normal -1.0 -0.0 -0.0
  outer loop
    vertex -473.67077917696037 -1304.1988652970308 -1.0000000000000002
    vertex -473.67077917696037 -1302.3988652970306 0.9999999999999999
    vertex -473.67077917696037 -1302.3988652970306 -1.0000000000000002
  endloop
endfacet
facet normal -0.0 -1.0 -0.0
  outer loop
    vertex -452.2707791769603 -1312.1988652970308 0.9999999999999999
    vertex -475.67077917696037 -1312.1988652970308 -1.0000000000000009
    vertex -452.2707791769603 -1312.1988652970308 -1.0000000000000009
  endloop
endfacet
facet normal -0.0 -1.0 -0.0
  outer loop
    vertex -475.67077917696037 -1312.1988652970308 -1.0000000000000009
    vertex -452.2707791769603 -1312.1988652970308 0.9999999999999999
    vertex -475.67077917696037 -1312.1988652970308 0.9999999999999999
  endloop
endfacet
facet normal -0.0 -0.0 1.0
  outer loop
    vertex -452.2707791769603 -1312.1988652970308 0.9999999999999999
    vertex -475.67077917696037 -1310.3988652970309 0.9999999999999999
    vertex -475.67077917696037 -1312.1988652970308 0.9999999999999999
  endloop
endfacet
facet normal -0.0 -0.0 1.0
  outer loop
    vertex -475.67077917696037 -1310.3988652970309 0.9999999999999999
    vertex -452.2707791769603 -1312.1988652970308 0.9999999999999999
    vertex -452.2707791769603 -1310.3988652970309 0.9999999999999999
  endloop
endfacet
facet normal 0.0 1.0 0.0
  outer loop
    vertex -475.67077917696037 -1310.3988652970309 0.9999999999999999
    vertex -452.2707791769603 -1310.3988652970309 -1.0000000000000009
    vertex -475.67077917696037 -1310.3988652970309 -1.0000000000000009
  endloop
endfacet
facet normal 0.0 1.0 0.0
  outer loop
    vertex -452.2707791769603 -1310.3988652970309 -1.0000000000000009
    vertex -475.67077917696037 -1310.3988652970309 0.9999999999999999
    vertex -452.2707791769603 -1310.3988652970309 0.9999999999999999
  endloop
endfacet
facet normal -0.0 -0.0 1.0
  outer loop
    vertex -454.2707791769603 -1304.1988652970308 0.9999999999999999
    vertex -473.67077917696037 -1302.3988652970306 0.9999999999999999
    vertex -473.67077917696037 -1304.1988652970308 0.9999999999999999
  endloop
endfacet
facet normal -0.0 -0.0 1.0
  outer loop
    vertex -473.67077917696037 -1302.3988652970306 0.9999999999999999
    vertex -454.2707791769603 -1304.1988652970308 0.9999999999999999
    vertex -454.2707791769603 -1302.3988652970306 0.9999999999999999
  endloop
endfacet
facet normal 0.0 1.0 0.0
  outer loop
    vertex -473.67077917696037 -1302.3988652970306 0.9999999999999999
    vertex -454.2707791769603 -1302.3988652970306 -1.0000000000000002
    vertex -473.67077917696037 -1302.3988652970306 -1.0000000000000002
  endloop
endfacet
facet normal 0.0 1.0 0.0
  outer loop
    vertex -454.2707791769603 -1302.3988652970306 -1.0000000000000002
    vertex -473.67077917696037 -1302.3988652970306 0.9999999999999999
    vertex -454.2707791769603 -1302.3988652970306 0.9999999999999999
  endloop
endfacet
facet normal 0.0 0.0 -1.0
  outer loop
    vertex -440.1707791769604 -1334.5288814576677 -0.9999999999999999
    vertex -487.7707791769604 -1336.3288814576679 -0.9999999999999999
    vertex -487.7707791769604 -1334.5288814576677 -0.9999999999999999
  endloop
endfacet
facet normal 0.0 0.0 -1.0
  outer loop
    vertex -487.7707791769604 -1336.3288814576679 -0.9999999999999999
    vertex -440.1707791769604 -1334.5288814576677 -0.9999999999999999
    vertex -440.1707791769604 -1336.3288814576679 -0.9999999999999999
  endloop
endfacet
facet normal 0.0 0.0 -1.0
  outer loop
    vertex -448.2707791769603 -1326.398865297031 -0.9999999999999999
    vertex -479.67077917696037 -1328.1988652970313 -0.9999999999999999
    vertex -479.67077917696037 -1326.398865297031 -0.9999999999999999
  endloop
endfacet
facet normal 0.0 0.0 -1.0
  outer loop
    vertex -479.67077917696037 -1328.1988652970313 -0.9999999999999999
    vertex -448.2707791769603 -1326.398865297031 -0.9999999999999999
    vertex -448.2707791769603 -1328.1988652970313 -0.9999999999999999
  endloop
endfacet
facet normal 0.0 0.0 -1.0
  outer loop
    vertex -450.2707791769603 -1318.198865297031 -1.0000000000000002
    vertex -477.67077917696037 -1320.198865297031 -1.0000000000000002
    vertex -477.67077917696037 -1318.198865297031 -1.0000000000000002
  endloop
endfacet
facet normal 0.0 0.0 -1.0
  outer loop
    vertex -477.67077917696037 -1320.198865297031 -1.0000000000000002
    vertex -450.2707791769603 -1318.198865297031 -1.0000000000000002
    vertex -450.2707791769603 -1320.198865297031 -1.0000000000000002
  endloop
endfacet
facet normal 0.0 0.0 -1.0
  outer loop
    vertex -452.2707791769603 -1310.3988652970309 -1.0000000000000009
    vertex -475.67077917696037 -1312.1988652970308 -1.0000000000000009
    vertex -475.67077917696037 -1310.3988652970309 -1.0000000000000009
  endloop
endfacet
facet normal 0.0 0.0 -1.0
  outer loop
    vertex -475.67077917696037 -1312.1988652970308 -1.0000000000000009
    vertex -452.2707791769603 -1310.3988652970309 -1.0000000000000009
    vertex -452.2707791769603 -1312.1988652970308 -1.0000000000000009
  endloop
endfacet
facet normal 0.0 0.0 -1.0
  outer loop
    vertex -454.2707791769603 -1302.3988652970306 -1.0000000000000002
    vertex -473.67077917696037 -1304.1988652970308 -1.0000000000000002
    vertex -473.67077917696037 -1302.3988652970306 -1.0000000000000002
  endloop
endfacet
facet normal 0.0 0.0 -1.0
  outer loop
    vertex -473.67077917696037 -1304.1988652970308 -1.0000000000000002
    vertex -454.2707791769603 -1302.3988652970306 -1.0000000000000002
    vertex -454.2707791769603 -1304.1988652970308 -1.0000000000000002
  endloop
endfacet
endsolid zierleisten
